{"title":"Ghost Rider 2007 DVDRip Xvid Ac3 BigPerm LKRG","uid":6742612,"size":1464768131,"categoryP":"video","categoryS":"movies","magnet":"?xt=urn:btih:c091541ca411affb0094b7b2d6629667d0c1cb18&amp;dn=Ghost+Rider+2007+DVDRip+Xvid+Ac3+BigPerm+LKRG&amp;tr=udp%3A%2F%2Ftracker.openbittorrent.com%3A80&amp;tr=udp%3A%2F%2Fopen.demonii.com%3A1337&amp;tr=udp%3A%2F%2Ftracker.coppersurfer.tk%3A6969&amp;tr=udp%3A%2F%2Fexodus.desync.com%3A6969","seeders":0,"leechers":1,"uploader":".BONE.","files":2,"time":1318570216,"description":"PLOT\n\nBased on the Marvel character, stunt motorcyclist Johnny Blaze gives up his soul to become a hellblazing\nvigilante, to fight against power hungry Blackheart, the son of the devil himself.\n &lt;a href=&quot;\nhttp://www.imdb.com/title/tt0259324/&quot; rel=&quot;nofollow&quot; target=&quot;_NEW&quot;&gt;\nhttp://www.imdb.com/title/tt0259324/&lt;/a&gt;\n\nEncoded By .......: BigPerm\nRuntime ..........: 2h 3mn\nFile Size ........: 1.36 GB\nResolution .......: 704 x 396\nIMDb URL .........: http://www.imdb.com/title/tt0259324/\nGenre ............: Action | Fantasy | Thriller\nLanguage .........: English\nSubtitles ........: None\nVideo\nID : 0\nFormat : MPEG-4 Visual\nFormat profile : Advanced Simple@L5\nFormat settings, BVOP : Yes\nFormat settings, QPel : No\nFormat settings, GMC : No warppoints\nFormat settings, Matrix : Default (H.263)\nCodec ID : XVID\nCodec ID/Hint : XviD\nDuration : 2h 3mn\nBit rate : 1 130 Kbps\nWidth : 704 pixels\nHeight : 396 pixels\nDisplay aspect ratio : 16:9\nFrame rate : 23.976 fps\nColor space : YUV\nChroma subsampling : 4:2:0\nBit depth : 8 bits\nScan type : Progressive\nCompression mode : Lossy\nBits/(Pixel*Frame) : 0.169\nStream size : 997 MiB (71%)\nWriting library : XviD 1.2.1 (UTC 2008-12-04)\nAudio\nID : 1\nFormat : AC-3\nFormat/Info : Audio Coding 3\nMode extension : CM (complete main)\nCodec ID : 2000\nDuration : 2h 3mn\nBit rate mode : Constant\nBit rate : 448 Kbps\nChannel(s) : 6 channels\nChannel positions : Front: L C R, Side: L R, LFE\nSampling rate : 48.0 KHz\nBit depth : 16 bits\nCompression mode : Lossy\nVideo delay : 42ms\nStream size : 395 MiB (28%)\nAlignment : Split accross interleaves\nInterleave, duration : 500 ms (11.99 video frames)\nInterleave, preload duration : 500 ms","torrent":{"xt":"urn:btih:c091541ca411affb0094b7b2d6629667d0c1cb18","amp;dn":"Ghost+Rider+2007+DVDRip+Xvid+Ac3+BigPerm+LKRG","amp;tr":["udp%3A%2F%2Ftracker.openbittorrent.com%3A80","udp%3A%2F%2Fopen.demonii.com%3A1337","udp%3A%2F%2Ftracker.coppersurfer.tk%3A6969","udp%3A%2F%2Fexodus.desync.com%3A6969"],"infoHash":"c091541ca411affb0094b7b2d6629667d0c1cb18","infoHashBuffer":{"type":"Buffer","data":[192,145,84,28,164,17,175,251,0,148,183,178,214,98,150,103,208,193,203,24]},"announce":[],"urlList":[]}}